<?xml version="1.0" encoding="utf-8"?>
<!-- Generator: Adobe Illustrator 25.0.1, SVG Export Plug-In . SVG Version: 6.00 Build 0)  -->
<svg version="1.1" id="Layer_1" xmlns="http://www.w3.org/2000/svg" xmlns:xlink="http://www.w3.org/1999/xlink" x="0px" y="0px"
	 viewBox="0 0 200 200" style="enable-background:new 0 0 200 200;" xml:space="preserve">
<style type="text/css">
	.st0{fill:#FFFFFF;}
</style>
<path class="st0" d="M99.8,152.6c-2.3-0.1-4.6-1.3-6.6-3.2c-13.6-13.7-27.3-27.3-40.9-40.9C36,92.1,19.6,75.8,3.3,59.4
	c-2.5-2.5-4-5.3-2.9-8.9c1.1-3.9,3.7-6.3,7.6-7.2c3.3-0.8,5.9,0.6,8.2,2.9c7.7,7.6,15.3,15.3,22.9,23C59,89,78.8,108.8,98.6,128.7
	c1.3,1.3,2,1.3,3.2,0c27.3-27.3,54.6-54.6,81.8-81.9c2.6-2.6,5.4-4.1,9.1-3c3.9,1.2,6.3,4,7.1,8c0.7,3.2-0.8,5.8-3,8
	c-7.5,7.5-14.9,14.9-22.4,22.4c-22.5,22.5-45,45-67.5,67.5C105.1,151.5,103,152.7,99.8,152.6z"/>
</svg>
