<?xml version="1.0" encoding="utf-8"?>
<!-- Generator: Adobe Illustrator 25.0.1, SVG Export Plug-In . SVG Version: 6.00 Build 0)  -->
<svg version="1.1" id="Layer_1" xmlns="http://www.w3.org/2000/svg" xmlns:xlink="http://www.w3.org/1999/xlink" x="0px" y="0px"
	 viewBox="0 0 200 200" style="enable-background:new 0 0 200 200;" xml:space="preserve">
<style type="text/css">
	.st0{fill:#FFFFFF;}
</style>
<g>
	<path class="st0" d="M58,195.2c-0.9,0-1.8-0.1-2.8-0.4c-4.3-1.2-7.1-4.2-8.1-8.6c-0.8-3.4,0.2-6.5,3.2-9.5
		c7.1-7.2,14.4-14.4,21.5-21.4c18.4-18.5,37.1-37.2,55.6-55.6c0,0,0.1-0.1,0.1-0.1c0,0,0,0,0,0c-25.1-25.1-51-51-76.6-76.5
		c-2.1-2.1-4.8-5.5-3.3-10.5c1.3-4.3,4.5-7.1,9-8c0.6-0.1,1.2-0.2,1.9-0.2c2.6,0,5,1.2,7.4,3.6l84,84c2.3,2.3,3.4,4.9,3.3,8.1
		c-0.1,2.6-1.3,5.2-3.5,7.5c-8.6,8.5-17.2,17.2-25.6,25.5c-4.2,4.2-8.5,8.5-12.7,12.7c-7.7,7.6-15.3,15.3-22.9,22.9
		c-7.6,7.6-15.3,15.3-23,22.9C63.1,194.1,60.6,195.2,58,195.2z"/>
</g>
</svg>
