<?xml version="1.0" encoding="utf-8"?>
<!-- Generator: Adobe Illustrator 25.0.1, SVG Export Plug-In . SVG Version: 6.00 Build 0)  -->
<svg version="1.1" id="Layer_1" xmlns="http://www.w3.org/2000/svg" xmlns:xlink="http://www.w3.org/1999/xlink" x="0px" y="0px"
	 viewBox="0 0 200 200" style="enable-background:new 0 0 200 200;" xml:space="preserve">
<style type="text/css">
	.st0{fill:#333333;}
</style>
<path class="st0" d="M72.2,153.5c0-11.4,0-22.9,0-34.3c0-1.3-0.3-1.7-1.6-1.7c-5.4,0.1-10.8,0.1-16.1,0c-4.9,0-8.5-2.7-9.7-7.3
	c-0.2-0.9-0.3-1.8-0.3-2.8c0-9.7,0-19.4,0-29.1c0-5,2.5-8.4,7.1-9.7c1.1-0.3,2.3-0.3,3.4-0.3c5.2,0,10.4-0.1,15.6,0
	c1.3,0,1.6-0.4,1.6-1.7c0-5.9-0.1-11.8,0.2-17.7c0.6-12.4,4.6-23.6,13.3-32.7c6.3-6.6,14.1-10.7,23-12.8c3.7-0.9,7.4-1.2,11.2-1.2
	c8.9,0.1,17.7,0,26.6,0c4.3,0,7.8,2.7,8.7,7c0.2,0.9,0.3,1.8,0.3,2.8c0,9,0,18,0,26.9c0,4.8-2.5,8.4-6.9,9.7
	c-1.2,0.3-2.4,0.4-3.6,0.4c-5.8,0.1-11.5,0.1-17.3,0.2c-0.9,0-1.9,0.2-2.8,0.4c-1.4,0.4-2.1,1.2-2.2,3c-0.1,3.4-0.2,6.8-0.2,10.2
	c0,1.3,0,2.6,0,3.9c-0.1,1,0.3,1.4,1.4,1.4c5.7,0,11.4,0,17.2,0c1.4,0,2.8,0,4.2,0.1c5,0.1,9.1,4.2,9.1,9.5c0.1,10,0.1,20.1,0,30.1
	c-0.1,5.6-4.2,9.5-9.9,9.6c-6.7,0-13.5,0-20.2,0c-1.7,0-1.7,0-1.7,1.7c0,22.7,0,45.3,0,68c0,3.4-0.9,6.2-3.6,8.4
	c-1.8,1.4-3.8,2.1-6,2.1c-10.4,0-20.8,0-31.1,0c-4.8,0-9.6-3.6-9.6-10.3C72.3,176.1,72.2,164.8,72.2,153.5z M142.9,79.7
	c-0.7,0-1.2,0-1.8,0c-7.6,0-15.2,0-22.9,0c-4.7,0-7.2-2.6-7.2-7.3c0-5-0.1-10,0-15c0.1-2.6,0.2-5.3,0.6-7.8c0.6-3.7,2.5-6.8,5.7-9
	c2.9-2,6.1-2.7,9.5-2.8c5.2-0.2,10.5-0.2,15.8-0.2c1.1,0,1.4-0.3,1.4-1.5c0-7.1,0-14.2,0-21.3c0-1.1-0.3-1.4-1.4-1.4
	c-6.2,0-12.4-0.1-18.6,0c-4.1,0.1-8.3,0.4-12.4,1.2c-7,1.3-13.1,4.6-18,9.8c-6.6,7-9.4,15.6-9.8,25c-0.3,7.6-0.1,15.2-0.2,22.9
	c0,1.3-0.2,2.8-0.8,3.9c-1.2,2.6-3.5,3.5-6.3,3.5c-6.4,0-12.9,0-19.3,0c-1.1,0-1.4,0.3-1.4,1.4c0,7.8,0,15.5,0,23.3
	c0,1.7,0,1.7,1.7,1.7c6.5,0,13,0,19.4,0c3.1,0,5.4,1.6,6.2,4.2c0.3,1.1,0.4,2.3,0.4,3.4c0,23.6,0,47.3,0,70.9c0,1.2,0.3,1.7,1.6,1.7
	c8-0.1,15.9,0,23.9,0c1.8,0,1.8,0,1.8-1.9c0-23.6,0-47.2,0-70.8c0-4.5,2.6-7.7,7.6-7.6c7.6,0.2,15.2,0,22.7,0.1
	c1.2,0,1.6-0.3,1.6-1.5c-0.1-7.8,0-15.6,0-23.4C142.9,80.7,142.9,80.3,142.9,79.7z"/>
</svg>
