<?xml version="1.0" encoding="utf-8"?>
<!-- Generator: Adobe Illustrator 25.0.1, SVG Export Plug-In . SVG Version: 6.00 Build 0)  -->
<svg version="1.1" id="Layer_1" xmlns="http://www.w3.org/2000/svg" xmlns:xlink="http://www.w3.org/1999/xlink" x="0px" y="0px"
	 viewBox="0 0 200 200" style="enable-background:new 0 0 200 200;" xml:space="preserve">
<style type="text/css">
	.st0{fill:#333333;}
</style>
<g>
	<path class="st0" d="M74.5,196.3c-2.3,0-4.3-0.6-5.9-1.9c-2.1-1.6-3.1-3.6-3.1-6v-1V69.2c0-4.5,2.2-7.5,6.3-8.8
		c0.9-0.3,1.8-0.3,2.5-0.3c6.1,0,12.3,0,18.4,0c4.3,0,8.5,0,12.8,0c4.9,0,8.6,3.4,8.9,8.2c6.6-5.9,14.4-9.6,23.3-10.8
		c3.7-0.5,7.4-0.8,10.9-0.8c4.3,0,8.6,0.4,12.7,1.2c11.1,2.2,20.3,8,27.4,17.1c4.5,5.8,7.5,12.6,8.9,20c0.6,3.2,0.9,6.6,0.9,10.1
		c0.1,21.4,0,43.2,0,64.2V187c0,5.4-3.8,9.2-9.3,9.2c-4.7,0-9.5,0-14.2,0h-16c-5.9,0-9.6-3.7-9.6-9.6c0-10.3,0-20.7,0-31V144
		c0-2.3,0-4.6,0-6.9c0-5.7,0-11.6-0.1-17.4c0-2.6-0.4-5.4-0.9-8.2c-0.5-2.4-2-4.4-4.8-6.4c-3.2-2.2-6.5-3.3-9.9-3.3
		c-1,0-2.1,0.1-3.1,0.3c-7.2,1.4-12.3,7.4-12.9,15.3c-0.1,1-0.1,2-0.1,2.9c0,15.6,0,66.8,0,66.8c0,5.6-3.5,9.1-9.1,9.1
		c-4.8,0-9.7,0-14.5,0L74.5,196.3z M188.2,185.8v-18c0-20.5,0-41.7-0.1-62.6c0-3.4-0.4-6.5-1-9.2c-3.7-14.9-12.8-24.1-27.3-27.6
		c-3.4-0.8-7-1.2-10.8-1.2c-3.5,0-7.3,0.4-11.1,1.1c-6.7,1.2-12.4,4.3-17.2,9c-2.7,2.7-5.3,5.5-7.9,8.2c-1.3,1.3-2.6,2.7-3.8,4
		c-0.2,0.2-0.5,0.5-0.8,0.7c-0.1,0.1-0.3,0.3-0.5,0.4l-3.3,2.9v-6.3v-4.4c0-4,0-8.1,0-12.2c-4.9,0-9.8,0-14.7,0H76.2v115.2h31.4
		c0-0.1,0-18.2,0-18.2c0-15.6,0-31.7,0-47.5c0-8.7,2.6-15.5,8-20.8c5.1-5,11.6-7.8,18.5-7.8c4.3,0,8.5,1,12.5,3.1
		c6.6,3.4,10.7,8.4,12.2,14.7c0.8,3.3,1.2,6.8,1.2,10.4c0.1,16.5,0.2,33.2,0.3,49.4l0.1,16.8L188.2,185.8z"/>
</g>
<g>
	<path class="st0" d="M41.2,196.3c-2.7,0-5.5,0-8.2,0H21.6c-1.6,0-3.1,0-4.7,0c-5.8,0-10.3-3.3-11.9-8.7c-0.4-1.4-0.5-2.7-0.5-3.8
		c0-23.1,0-46.3,0-69.4V72.7c0-5.3,2.1-9.1,6.2-11.1c1.5-0.8,3.4-1.2,5.1-1.3c4.8-0.1,9.7-0.1,14.6-0.1c3.8,0,7.6,0,11.5,0
		c6.7,0.1,11.7,5.3,11.7,12.2c0,13.1,0,26.2,0,39.3v16.6c0,5.1,0,10.2,0,15.4c0,13.1,0,26.7,0.1,40.1c0,3.4-1.3,6.6-3.6,9
		C47.9,195,44.7,196.3,41.2,196.3L41.2,196.3z M17.2,70.6c-2,0-2.1,0.1-2.1,2.2c0,36.9,0,73.9,0,110.8c0,1.8,0.4,2.2,2.1,2.2
		c4.1,0,8.2,0,12.2,0c3.9,0,7.8,0,11.7,0c1.9,0,2.2-0.2,2.2-2.2V72.9c0-1.9-0.3-2.3-2.3-2.3H30.3L17.2,70.6z"/>
</g>
<g>
	<path class="st0" d="M29,57.8c-0.7,0-1.4,0-2.1-0.1c-7.1-0.5-13.9-4-18.8-9.6c-4.9-5.7-7.3-12.9-6.7-20.3
		C2.6,13.2,14.6,2.2,29.5,2.2h0.4c7.4,0.1,14.3,3.3,19.6,8.9c5.1,5.5,7.8,12.4,7.4,19.1C56.8,43.5,46.1,57.8,29,57.8z M29.1,12.7
		c-8.2,0-16.8,5.7-17.2,16.7c-0.4,8.1,4.9,17.2,17.2,18c0.3,0,0.5,0,0.8,0c7.5,0,16.4-7.1,16.4-16.3V31c0.3-4.5-1.2-9.1-4.3-12.5
		c-3.1-3.5-7.4-5.5-12.2-5.6C29.6,12.7,29.3,12.7,29.1,12.7z"/>
</g>
</svg>
