<?xml version="1.0" encoding="utf-8"?>
<!-- Generator: Adobe Illustrator 25.0.1, SVG Export Plug-In . SVG Version: 6.00 Build 0)  -->
<svg version="1.1" id="Layer_1" xmlns="http://www.w3.org/2000/svg" xmlns:xlink="http://www.w3.org/1999/xlink" x="0px" y="0px"
	 viewBox="0 0 200 200" style="enable-background:new 0 0 200 200;" xml:space="preserve">
<style type="text/css">
	.st0{fill:#8DC63F;}
</style>
<path class="st0" d="M49.6,91.6c2.1,0.6,4,1,5.9,1.6C69.9,98,80,107.5,84.4,122c5.5,18-1.2,37.6-18.6,47.7c-6.2,3.6-13.1,5-20.2,4.8
	c-13.6-0.4-24.2-6.6-32.7-16.9c-5.9-7.1-9.5-15.2-11-24.2c-1.2-7-1-14.1-0.2-21.2C2.5,104.2,4.2,96.5,7,89
	c3.3-8.8,7.9-16.8,13.6-24.2c8-10.3,17.7-18.8,28.5-26.2c7.1-4.9,14.6-9,22.3-12.9c0.8-0.4,1.2-0.4,1.7,0.5
	c4.8,9,9.7,17.9,14.6,26.9c0.5,1,0.3,1.4-0.6,1.8c-7.6,3.7-15.1,7.7-21.7,13c-6.2,5-11.5,10.6-14.2,18.3
	C50.5,87.9,50.1,89.8,49.6,91.6z M9.2,121.3c-0.1,5.3,0.3,10.6,1.8,15.7c2.6,9.1,7.8,16.5,15.2,22.3c5.9,4.7,12.8,6.9,20.4,6.9
	c5.5,0,10.9-1.1,15.7-4.1c9.1-5.7,14.2-13.9,15.5-24.6c2-17.5-9.9-31.5-23.5-36.2c-3.8-1.3-7.7-2-11.7-2.3c-0.7-0.1-1.2-0.1-1.3-1.1
	c-0.3-7.8,1.4-15.1,5.5-21.8c4.8-7.8,11.6-13.8,19.2-18.8c3.3-2.2,6.7-4,10.1-6c0.6-0.4,1.1-0.6,0.6-1.5c-2.4-4.2-4.7-8.5-6.9-12.8
	c-0.4-0.7-0.7-0.8-1.4-0.4C56.1,43.3,44.7,51.1,34.9,61c-9.8,9.9-17.2,21.4-21.5,34.7C10.7,104,9.3,112.6,9.2,121.3z"/>
<path class="st0" d="M199.1,54.3c-2.9,1.5-5.8,3-8.7,4.5c-7.8,4.2-15,9.1-21,15.7c-3.8,4.2-6.6,9-8,14.5c-0.6,2.6-0.7,2.6,1.8,3.3
	c12.8,3.2,22.4,10.6,28.9,22c3.7,6.5,5.1,13.5,4.9,21c-0.2,6-1.3,11.8-4,17.2c-5.4,10.7-13.7,18.2-25.7,21
	c-10.8,2.5-21.1,1-30.7-4.7c-6.3-3.7-11.4-8.8-15.5-14.9c-6.7-9.7-9.4-20.6-9.1-32.3c0.1-7.1,0.9-14.2,2.5-21.1
	c3.3-13.7,9.4-26,18.3-37c6.6-8.2,14.4-15.3,22.9-21.5c8.5-6.3,17.7-11.5,27.2-16.3c0.7-0.4,1.1-0.3,1.5,0.5
	c4.9,9.2,9.7,18.5,14.6,27.7C199,54,199,54.1,199.1,54.3z M120.1,122.2c-0.1,5,0.4,10.2,2,15.3c2.7,8.9,7.9,16,15.2,21.8
	c6,4.7,12.9,7,20.5,7c5.5,0,10.7-1,15.4-3.9c12.9-7.9,17.7-21.4,14.9-35.3c-2.3-11.5-9.6-19.4-20-24.5c-4.5-2.2-9.3-3-14.2-3.5
	c-0.8-0.1-1.4-0.1-1.5-1.2c-0.1-6.5,0.9-12.8,3.9-18.7c3.9-7.8,9.8-13.9,16.7-19c4.4-3.2,9.2-5.9,13.9-8.9c0.7-0.4,1-0.8,0.6-1.6
	c-2.3-4.2-4.5-8.4-6.7-12.6c-0.4-0.8-0.8-0.8-1.5-0.4c-2.5,1.5-5,2.8-7.5,4.3c-11,6.6-21.1,14.4-29.7,24
	c-6.9,7.7-12.3,16.2-16.1,25.8C122.1,100.8,120.2,111.2,120.1,122.2z"/>
</svg>
