<?xml version="1.0" encoding="utf-8"?>
<!-- Generator: Adobe Illustrator 25.0.1, SVG Export Plug-In . SVG Version: 6.00 Build 0)  -->
<svg version="1.1" id="Layer_1" xmlns="http://www.w3.org/2000/svg" xmlns:xlink="http://www.w3.org/1999/xlink" x="0px" y="0px"
	 viewBox="0 0 200 200" style="enable-background:new 0 0 200 200;" xml:space="preserve">
<style type="text/css">
	.st0{fill:#333333;}
</style>
<path class="st0" d="M98.2,20.4c19.3,0.6,36.8,1.2,54.3,1.8c5,0.2,10,0.4,14.9,0.9c7.9,0.7,14.9,3.5,20.6,9.2
	c3.5,3.5,5.6,7.9,7.1,12.5c2.1,6.6,2.7,13.4,3.1,20.2c1,15.3,1,30.6,0.7,45.9c-0.2,8.4-0.7,16.9-1.5,25.2c-0.7,6.7-2.5,13.2-6.1,19
	c-3.7,5.9-9,10-15.7,11.8c-3.7,1-7.7,1.6-11.6,1.8c-9.7,0.6-19.4,1-29.1,1.4c-10,0.3-20,0.6-29.9,0.6c-9.8,0-19.5-0.1-29.3-0.4
	c-12-0.3-23.9-0.8-35.9-1.4c-5.2-0.2-10.3-0.8-15.3-2.2c-10.2-3-16.7-9.8-19.9-19.9c-2.1-6.5-2.6-13.3-3.1-20.1
	c-1-15.6-1-31.3-0.6-47c0.2-8.1,0.6-16.3,1.5-24.3c0.7-6.7,2.5-13.2,6.2-19c3.8-5.9,9.1-10,15.9-11.9c3.4-1,7-1.7,10.5-1.8
	C56.6,21.9,78.3,21.1,98.2,20.4z M107.9,159.4c16-0.6,34.7-1.3,53.4-2.1c3.3-0.1,6.6-0.5,9.8-1.2c5.2-1.1,9.1-4.1,11.4-9
	c1.8-3.8,3-7.8,3.4-12c0.5-5.3,0.9-10.6,1.1-16c0.7-17.9,0.7-35.9-0.4-53.8c-0.3-5-0.5-10-1.9-14.8c-0.9-3-1.6-6-3.5-8.5
	c-3.6-4.8-8.7-6.9-14.5-7.4c-6.3-0.5-12.6-0.9-18.9-1.1c-14.6-0.5-29.2-1-43.9-1.1c-22.9-0.1-45.8,0.6-68.6,2
	c-2.2,0.1-4.5,0.5-6.6,1.1c-5,1.4-9,4.3-11.3,9.1c-1.8,3.8-3.1,7.9-3.4,12.1c-0.6,7.3-1.1,14.6-1.3,21.9c-0.5,17.9-0.4,35.7,1,53.5
	c0.4,4.8,1.4,9.5,3.2,14c2,4.9,5.7,7.9,10.6,9.3c6,1.8,12.2,2,18.4,2.2c9.6,0.4,19.2,0.7,28.8,1C84.9,159,95.1,159.1,107.9,159.4z"
	/>
<path class="st0" d="M83,69.7c1.4,0.5,2.8,0.8,4.1,1.4c14.3,7.8,28.7,15.6,43,23.5c5,2.8,6.1,8.5,2.4,12.6c-0.7,0.8-1.7,1.5-2.7,2
	c-14.2,7.7-28.4,15.4-42.7,23c-6.1,3.3-12.4-0.5-12.4-7.4c0-15.4,0-30.9,0-46.3C74.8,73.5,78.4,69.8,83,69.7z M119.2,101.9
	c-11-6-21.7-11.9-32.6-17.8c0,11.9,0,23.5,0,35.4C97.4,113.6,108.1,107.9,119.2,101.9z"/>
</svg>
